<?xml version="1.0" standalone="no"?>
<!DOCTYPE svg PUBLIC "-//W3C//DTD SVG 20010904//EN"
 "http://www.w3.org/TR/2001/REC-SVG-20010904/DTD/svg10.dtd">
<svg version="1.0" xmlns="http://www.w3.org/2000/svg"
 width="298.000000pt" height="298.000000pt" viewBox="0 0 298.000000 298.000000"
 preserveAspectRatio="xMidYMid meet">
<metadata>
Created by potrace 1.11, written by Peter Selinger 2001-2013
</metadata>
<g transform="translate(0.000000,298.000000) scale(0.100000,-0.100000)"
fill="#000000" stroke="none">
<path d="M0 1490 l0 -1390 1490 0 1490 0 0 1390 0 1390 -1490 0 -1490 0 0
-1390z m2211 1181 c15 -11 132 -238 309 -595 l284 -577 -284 -571 c-172 -344
-294 -578 -309 -589 -23 -18 -51 -19 -687 -19 -403 0 -673 4 -688 10 -21 8
-74 107 -311 580 -157 313 -285 578 -285 589 0 10 128 278 284 595 221 446
290 578 308 585 13 6 306 10 689 10 638 1 667 0 690 -18z"/>
<path d="M629 2038 l-266 -533 266 -532 266 -533 622 0 623 0 266 532 266 533
-266 532 -266 533 -623 0 -622 0 -266 -532z m701 -103 c0 -35 -4 -45 -17 -45
-9 0 -25 -7 -35 -17 -16 -14 -18 -33 -18 -142 -1 -166 -10 -209 -50 -242 -30
-26 -31 -27 -11 -34 42 -13 54 -59 60 -228 6 -165 10 -176 54 -177 14 0 17 -9
17 -46 l0 -47 -55 6 c-125 13 -137 34 -143 257 -2 91 -9 173 -14 183 -5 9 -18
17 -28 17 -17 0 -20 7 -20 43 0 37 4 46 25 55 31 14 33 25 38 212 5 200 18
227 117 243 76 13 80 11 80 -38z m466 19 c43 -20 54 -55 54 -169 0 -51 3 -127
7 -170 6 -72 8 -79 35 -94 24 -14 28 -22 28 -58 0 -35 -3 -43 -19 -43 -37 0
-43 -24 -48 -192 -2 -90 -9 -178 -15 -196 -12 -41 -52 -62 -130 -69 l-58 -6 0
47 c0 42 2 46 24 46 46 0 56 31 56 175 0 149 9 191 47 222 l27 22 -27 21 c-37
29 -47 76 -47 217 0 143 -8 171 -50 179 -28 6 -30 9 -30 52 l0 45 57 -7 c31
-4 71 -14 89 -22z"/>
</g>
</svg>
