<?xml version="1.0"?>
<svg xmlns="http://www.w3.org/2000/svg" xmlns:xlink="http://www.w3.org/1999/xlink" version="1.1" id="Capa_1" x="0px" y="0px" viewBox="0 0 512 512" style="enable-background:new 0 0 512 512;" xml:space="preserve" width="512px" height="512px" class=""><g><path style="fill:#FFFFFF" d="M376,504.5H136c-16.569,0-30-13.431-30-30v-437c0-16.569,13.431-30,30-30h240  c16.569,0,30,13.431,30,30v437C406,491.069,392.569,504.5,376,504.5z" data-original="#7C8D9C" class="" data-old_color="#7C8D9C"/><path style="fill:#FFFFFF" d="M376,7.5h-30c16.569,0,30,13.431,30,30v437c0,16.569-13.431,30-30,30h30c16.569,0,30-13.431,30-30  v-437C406,20.931,392.569,7.5,376,7.5z" data-original="#5A6570" class="" data-old_color="#5A6570"/><rect x="106" y="66" style="fill:#E91C63" width="300" height="380" data-original="#BBF7FA" class="" data-old_color="#BBF7FA"/><rect x="376" y="66" style="fill:#E91C63" width="30" height="380" data-original="#82E8ED" class="" data-old_color="#82E8ED"/><path style="fill:#FFD7E5" d="M254.854,190.106c0.568,0.785,1.725,0.785,2.293,0C261.691,183.825,279.735,162,311,162  c32.56,0,55,30.571,55,66.173c0,40.893-30.12,89.219-108.177,131.368c-1.133,0.612-2.513,0.612-3.646,0  C176.12,317.392,146,269.066,146,228.173C146,192.571,168.44,162,201,162C232.265,162,250.309,183.825,254.854,190.106z" data-original="#DC527C" class="active-path" data-old_color="#DC527C"/><path d="M406,408.25c-4.143,0-7.5,3.357-7.5,7.5v22.75H159.667c-4.143,0-7.5,3.357-7.5,7.5s3.357,7.5,7.5,7.5H398.5v21  c0,12.406-10.094,22.5-22.5,22.5H136c-12.406,0-22.5-10.094-22.5-22.5v-21h14.167c4.143,0,7.5-3.357,7.5-7.5s-3.357-7.5-7.5-7.5  H113.5V128c0-4.143-3.357-7.5-7.5-7.5s-7.5,3.357-7.5,7.5v346.5c0,20.678,16.822,37.5,37.5,37.5h240c20.678,0,37.5-16.822,37.5-37.5  v-58.75C413.5,411.607,410.143,408.25,406,408.25z" data-original="#000000" class="" style="fill:#000000"/><path d="M376,0H136c-20.678,0-37.5,16.822-37.5,37.5v58.125c0,4.143,3.357,7.5,7.5,7.5s7.5-3.357,7.5-7.5V73.5h285v310.25  c0,4.143,3.357,7.5,7.5,7.5s7.5-3.357,7.5-7.5V37.5C413.5,16.822,396.678,0,376,0z M113.5,58.5v-21c0-12.406,10.094-22.5,22.5-22.5  h240c12.406,0,22.5,10.094,22.5,22.5v21H113.5z" data-original="#000000" class="" style="fill:#000000"/><path d="M250.61,366.139c1.688,0.912,3.539,1.368,5.391,1.368c1.85,0,3.7-0.455,5.386-1.366  C358.935,313.467,373.5,257.09,373.5,228.173c0-19.325-6.015-37.481-16.935-51.124C344.926,162.508,328.743,154.5,311,154.5  c-27.733,0-46.068,15.301-55,25.164c-8.932-9.863-27.267-25.164-55-25.164c-17.743,0-33.926,8.008-45.565,22.549  c-10.92,13.643-16.935,31.799-16.935,51.124C138.5,257.09,153.065,313.467,250.61,366.139z M201,169.5  c27.543,0,43.533,19.137,47.777,25.003h0.001c1.673,2.312,4.373,3.691,7.222,3.691c2.849,0,5.549-1.38,7.223-3.691  c4.244-5.866,20.234-25.003,47.777-25.003c27.079,0,47.5,25.224,47.5,58.673c0,43.778-36.379,87.702-102.5,123.823  c-66.118-36.119-102.5-80.045-102.5-123.823C153.5,194.724,173.921,169.5,201,169.5z" data-original="#000000" class="" style="fill:#000000"/><path d="M282,28.5h-52c-4.143,0-7.5,3.357-7.5,7.5s3.357,7.5,7.5,7.5h52c4.143,0,7.5-3.357,7.5-7.5S286.143,28.5,282,28.5z" data-original="#000000" class="" style="fill:#000000"/><path d="M282,483.5c4.143,0,7.5-3.357,7.5-7.5s-3.357-7.5-7.5-7.5h-52c-4.143,0-7.5,3.357-7.5,7.5s3.357,7.5,7.5,7.5H282z" data-original="#000000" class="" style="fill:#000000"/></g> </svg>